<mxfile host="app.diagrams.net" agent="Mozilla/5.0 (Windows NT 10.0; Win64; x64) AppleWebKit/537.36 (KHTML, like Gecko) Chrome/127.0.0.0 Safari/537.36" version="24.7.7">
  <diagram name="Page-1" id="hVDpBrFj8UpdmusjzeAu">
    <mxGraphModel dx="936" dy="474" grid="1" gridSize="10" guides="1" tooltips="1" connect="1" arrows="1" fold="1" page="1" pageScale="1" pageWidth="827" pageHeight="1169" math="0" shadow="0">
      <root>
        <mxCell id="0" />
        <mxCell id="1" parent="0" />
        <mxCell id="j5i2B7NP1m_DkZPPLirW-1" value="Indexed data" style="image;aspect=fixed;html=1;points=[];align=center;fontSize=12;image=img/lib/azure2/databases/SQL_Data_Warehouses.svg;" vertex="1" parent="1">
          <mxGeometry x="414" y="330" width="64" height="65" as="geometry" />
        </mxCell>
        <mxCell id="j5i2B7NP1m_DkZPPLirW-2" value="&lt;font style=&quot;font-size: 14px;&quot;&gt;Source -&amp;nbsp;&lt;span style=&quot;font-family: Calibri, sans-serif;&quot; lang=&quot;EN-GB&quot;&gt;competence&amp;nbsp;&lt;/span&gt;&lt;/font&gt;&lt;div&gt;&lt;font style=&quot;font-size: 14px;&quot;&gt;&lt;span style=&quot;font-family: Calibri, sans-serif;&quot; lang=&quot;EN-GB&quot;&gt;Framework docs&lt;/span&gt;&lt;/font&gt;&lt;span style=&quot;font-size:12.0pt;font-family:&lt;br/&gt;&amp;quot;Calibri&amp;quot;,sans-serif;mso-ascii-theme-font:minor-latin;mso-fareast-font-family:&lt;br/&gt;&amp;quot;Times New Roman&amp;quot;;mso-fareast-theme-font:minor-fareast;mso-hansi-theme-font:&lt;br/&gt;minor-latin;mso-bidi-font-family:&amp;quot;Times New Roman&amp;quot;;mso-bidi-theme-font:minor-bidi;&lt;br/&gt;mso-font-kerning:0pt;mso-ligatures:none;mso-ansi-language:EN-GB;mso-fareast-language:&lt;br/&gt;ZH-CN;mso-bidi-language:AR-SA&quot; lang=&quot;EN-GB&quot;&gt;&amp;nbsp;&lt;/span&gt;&lt;/div&gt;" style="sketch=0;outlineConnect=0;fontColor=#232F3E;gradientColor=none;fillColor=#232F3D;strokeColor=none;dashed=0;verticalLabelPosition=bottom;verticalAlign=top;align=center;html=1;fontSize=12;fontStyle=0;aspect=fixed;pointerEvents=1;shape=mxgraph.aws4.folder;" vertex="1" parent="1">
          <mxGeometry x="220" y="159" width="78" height="71" as="geometry" />
        </mxCell>
        <mxCell id="j5i2B7NP1m_DkZPPLirW-3" value="Organization&amp;nbsp;&lt;div&gt;people policies&lt;/div&gt;" style="sketch=0;pointerEvents=1;shadow=0;dashed=0;html=1;strokeColor=none;fillColor=#505050;labelPosition=center;verticalLabelPosition=bottom;verticalAlign=top;outlineConnect=0;align=center;shape=mxgraph.office.security.address_book_policies;" vertex="1" parent="1">
          <mxGeometry x="560" y="160" width="80" height="70" as="geometry" />
        </mxCell>
        <mxCell id="j5i2B7NP1m_DkZPPLirW-4" value="HR/ERP system&amp;nbsp;&lt;div&gt;(Workday)&lt;/div&gt;" style="sketch=0;pointerEvents=1;shadow=0;dashed=0;html=1;strokeColor=none;labelPosition=center;verticalLabelPosition=bottom;verticalAlign=top;align=center;fillColor=#515151;shape=mxgraph.mscae.enterprise.database_server" vertex="1" parent="1">
          <mxGeometry x="240" y="460" width="70" height="80" as="geometry" />
        </mxCell>
        <mxCell id="j5i2B7NP1m_DkZPPLirW-5" value="Knowledge Management&lt;div&gt;&amp;nbsp;system&lt;/div&gt;" style="shape=image;html=1;verticalAlign=top;verticalLabelPosition=bottom;labelBackgroundColor=#ffffff;imageAspect=0;aspect=fixed;image=https://cdn4.iconfinder.com/data/icons/success-filloutline/64/idea-read-knowledge-light_bulb-thinking-128.png" vertex="1" parent="1">
          <mxGeometry x="562" y="460" width="78" height="78" as="geometry" />
        </mxCell>
        <mxCell id="j5i2B7NP1m_DkZPPLirW-6" value="" style="html=1;shadow=0;dashed=0;align=center;verticalAlign=middle;shape=mxgraph.arrows2.stylisedArrow;dy=0.93;dx=41.11;notch=15;feather=0.4;rotation=45;" vertex="1" parent="1">
          <mxGeometry x="314" y="260" width="100" height="60" as="geometry" />
        </mxCell>
        <mxCell id="j5i2B7NP1m_DkZPPLirW-7" value="" style="html=1;shadow=0;dashed=0;align=center;verticalAlign=middle;shape=mxgraph.arrows2.stylisedArrow;dy=0.92;dx=32.85;notch=15;feather=0.4;rotation=-225;" vertex="1" parent="1">
          <mxGeometry x="460" y="260" width="100" height="60" as="geometry" />
        </mxCell>
        <mxCell id="j5i2B7NP1m_DkZPPLirW-8" value="" style="html=1;shadow=0;dashed=0;align=center;verticalAlign=middle;shape=mxgraph.arrows2.stylisedArrow;dy=0.92;dx=32.85;notch=15;feather=0.4;rotation=-135;" vertex="1" parent="1">
          <mxGeometry x="470" y="395" width="100" height="60" as="geometry" />
        </mxCell>
        <mxCell id="j5i2B7NP1m_DkZPPLirW-9" value="" style="html=1;shadow=0;dashed=0;align=center;verticalAlign=middle;shape=mxgraph.arrows2.stylisedArrow;dy=0.92;dx=32.85;notch=15;feather=0.4;rotation=-45;" vertex="1" parent="1">
          <mxGeometry x="320" y="395" width="100" height="60" as="geometry" />
        </mxCell>
      </root>
    </mxGraphModel>
  </diagram>
</mxfile>
